<svg width="108" height="106" viewBox="0 0 108 106" fill="none" xmlns="http://www.w3.org/2000/svg">
<rect width="108" height="106" rx="12" fill="#F0F0F0"/>
<path d="M11.2806 31.956C10.146 31.956 9.22615 31.0362 9.22615 29.9016L9.22618 20.3341C9.22619 15.289 13.3161 11.1991 18.3613 11.1991L25.0998 11.199C26.4234 11.199 27.4964 12.272 27.4964 13.5956C27.4964 14.9192 26.4234 15.9922 25.0998 15.9922L20.6113 15.9922C16.8088 15.9922 13.7262 19.0747 13.7262 22.8772L13.7262 29.5105C13.7262 30.8611 12.6312 31.956 11.2806 31.956Z" fill="#023785"/>
<path d="M77.0224 13.2805C77.01 12.1459 77.9198 11.2161 79.0543 11.2038L88.6212 11.0996C93.6661 11.0446 97.8003 15.0897 97.8553 20.1346L97.9287 26.8727C97.9431 28.1962 96.8819 29.2808 95.5584 29.2952C94.2349 29.3097 93.1503 28.2484 93.1358 26.9249L93.0869 22.4367C93.0455 18.6344 89.9296 15.5856 86.1273 15.627L79.4944 15.6993C78.1439 15.714 77.0371 14.6311 77.0224 13.2805Z" fill="#023785"/>
<path d="M96.268 71.1972C97.4026 71.1972 98.3224 72.117 98.3224 73.2516L98.3224 82.8191C98.3224 87.8642 94.2325 91.9541 89.1873 91.9541L82.4488 91.9541C81.1252 91.9541 80.0522 90.8812 80.0522 89.5576C80.0522 88.234 81.1252 87.161 82.4488 87.161L86.9373 87.161C90.7398 87.161 93.8223 84.0785 93.8224 80.276L93.8224 73.6427C93.8224 72.2921 94.9173 71.1972 96.268 71.1972Z" fill="#023785"/>
<path d="M31.9325 89.0409C31.9448 90.1754 31.0351 91.1052 29.9005 91.1176L20.3336 91.2218C15.2888 91.2767 11.1545 87.2316 11.0996 82.1868L11.0261 75.4487C11.0117 74.1251 12.0729 73.0405 13.3965 73.0261C14.72 73.0117 15.8046 74.0729 15.819 75.3964L15.8679 79.8847C15.9093 83.6869 19.0252 86.7357 22.8275 86.6943L29.4604 86.6221C30.811 86.6074 31.9177 87.6903 31.9325 89.0409Z" fill="#023785"/>
<circle cx="54" cy="98" r="2" fill="#0363BA"/>
<circle cx="54" cy="53" r="2" fill="#0363BA"/>
<circle cx="85" cy="25" r="2" fill="#0363BA"/>
<circle cx="23" cy="24" r="2" fill="#0363BA"/>
<circle cx="85" cy="80" r="2" fill="#0363BA"/>
<circle cx="23" cy="78" r="2" fill="#0363BA"/>
<circle cx="54" cy="11" r="2" fill="#0363BA"/>
<circle cx="100" cy="53" r="2" fill="#0363BA"/>
<circle cx="8" cy="53" r="2" fill="#0363BA"/>
<circle cx="53.5" cy="52.5" r="10" stroke="#023785" stroke-width="5"/>
<path d="M73.5 52.5C73.5 62.8875 64.654 71.5 53.5 71.5C42.346 71.5 33.5 62.8875 33.5 52.5C33.5 42.1125 42.346 33.5 53.5 33.5C64.654 33.5 73.5 42.1125 73.5 52.5Z" stroke="#023785" stroke-width="5"/>
<path d="M53.865 24.6476C29.9358 24.6476 18.8785 46.2963 16.4104 51.9185C16.0366 52.7698 16.0299 53.7107 16.3943 54.5661C18.7834 60.1739 29.521 81.6476 53.865 81.6476C78.2089 81.6476 88.9467 60.1739 91.3358 54.5661C91.7002 53.7107 91.6935 52.7698 91.3197 51.9184C88.8515 46.2962 77.7941 24.6476 53.865 24.6476Z" stroke="#023785" stroke-width="7"/>
</svg>
